<svg version="1.1" viewBox="0.0 0.0 960.0 540.0" fill="none" stroke="none" stroke-linecap="square" stroke-miterlimit="10" xmlns:xlink="http://www.w3.org/1999/xlink" xmlns="http://www.w3.org/2000/svg"><clipPath id="g385eb736b95_0_0.0"><path d="m0 0l960.0 0l0 540.0l-960.0 0l0 -540.0z" clip-rule="nonzero"/></clipPath><g clip-path="url(#g385eb736b95_0_0.0)"><path fill="#f1c232" d="m0 0l960.0 0l0 540.0l-960.0 0z" fill-rule="evenodd"/><path fill="#000000" fill-opacity="0.0" d="m-24.461943 484.77167c14.986311 0.99920654 34.505028 2.3311157 42.46457 15.068237c8.765018 14.026062 1.4682922 33.26941 5.4803143 49.31494c3.1949406 12.77771 21.096056 16.028381 32.87664 21.91864" fill-rule="evenodd"/><path stroke="#000000" stroke-width="3.0" stroke-linejoin="round" stroke-linecap="butt" d="m-24.461943 484.77167c14.986311 0.99920654 34.505028 2.3311157 42.46457 15.068237c8.765018 14.026062 1.4682922 33.26941 5.4803143 49.31494c3.1949406 12.77771 21.096056 16.028381 32.87664 21.91864" fill-rule="evenodd"/><path fill="#000000" fill-opacity="0.0" d="m-16.309711 457.80795c18.370438 -1.148407 43.75 -7.878113 54.792652 6.8477783c5.5065117 7.3432007 -1.82407 18.266052 -2.7375336 27.398956c-1.1223717 11.221527 4.988762 22.94403 12.328083 31.50653c15.280235 17.826965 47.492764 5.9379883 68.49344 16.438354" fill-rule="evenodd"/><path stroke="#000000" stroke-width="3.0" stroke-linejoin="round" stroke-linecap="butt" d="m-16.309711 457.80795c18.370438 -1.148407 43.75 -7.878113 54.792652 6.8477783c5.5065117 7.3432007 -1.82407 18.266052 -2.7375336 27.398956c-1.1223717 11.221527 4.988762 22.94403 12.328083 31.50653c15.280235 17.826965 47.492764 5.9379883 68.49344 16.438354" fill-rule="evenodd"/><path fill="#000000" fill-opacity="0.0" d="m-11.934383 413.54062c17.11564 0 38.582455 -3.884735 50.68504 8.217865c17.076176 17.076172 5.141945 50.21237 19.178478 69.863495c10.306278 14.4288025 33.998928 15.382935 43.834644 30.136505c14.616394 21.92456 11.988998 61.530884 36.986877 69.863525" fill-rule="evenodd"/><path stroke="#000000" stroke-width="3.0" stroke-linejoin="round" stroke-linecap="butt" d="m-11.934383 413.54062c17.11564 0 38.582455 -3.884735 50.68504 8.217865c17.076176 17.076172 5.141945 50.21237 19.178478 69.863495c10.306278 14.4288025 33.998928 15.382935 43.834644 30.136505c14.616394 21.92456 11.988998 61.530884 36.986877 69.863525" fill-rule="evenodd"/><path fill="#000000" fill-opacity="0.0" d="m953.8183 569.7034c-16.704529 -11.1345825 -16.59375 -37.494324 -17.80841 -57.532837c-3.4250488 -56.503174 13.660034 -120.050476 52.055115 -161.64566c15.301819 -16.57721 38.842957 -23.772125 54.795227 -39.724396" fill-rule="evenodd"/><path stroke="#000000" stroke-width="3.0" stroke-linejoin="round" stroke-linecap="butt" d="m953.8183 569.7034c-16.704529 -11.1345825 -16.59375 -37.494324 -17.80841 -57.532837c-3.4250488 -56.503174 13.660034 -120.050476 52.055115 -161.64566c15.301819 -16.57721 38.842957 -23.772125 54.795227 -39.724396" fill-rule="evenodd"/><path fill="#000000" fill-opacity="0.0" d="m934.63995 564.2257c-12.53479 -7.5237427 -10.958008 -27.847778 -10.958008 -42.467163c0 -37.542786 0.56243896 -75.57413 8.217834 -112.328094c9.705444 -46.596466 67.12335 -78.4324 67.12335 -126.02887" fill-rule="evenodd"/><path stroke="#000000" stroke-width="3.0" stroke-linejoin="round" stroke-linecap="butt" d="m934.63995 564.2257c-12.53479 -7.5237427 -10.958008 -27.847778 -10.958008 -42.467163c0 -37.542786 0.56243896 -75.57413 8.217834 -112.328094c9.705444 -46.596466 67.12335 -78.4324 67.12335 -126.02887" fill-rule="evenodd"/><path fill="#000000" fill-opacity="0.0" d="m909.9842 606.6903c-17.014587 -46.781982 0.12084961 -99.60379 2.7374878 -149.31497c1.5122681 -28.730255 1.3701172 -57.529205 1.3701172 -86.299225c0 -16.901184 -5.2891846 -35.151062 1.3700562 -50.685028c5.9017944 -13.767029 23.4281 -18.692749 35.61682 -27.398956c17.128113 -12.234375 31.104858 -28.466492 47.944885 -41.094482" fill-rule="evenodd"/><path stroke="#000000" stroke-width="3.0" stroke-linejoin="round" stroke-linecap="butt" d="m909.9842 606.6903c-17.014587 -46.781982 0.12084961 -99.60379 2.7374878 -149.31497c1.5122681 -28.730255 1.3701172 -57.529205 1.3701172 -86.299225c0 -16.901184 -5.2891846 -35.151062 1.3700562 -50.685028c5.9017944 -13.767029 23.4281 -18.692749 35.61682 -27.398956c17.128113 -12.234375 31.104858 -28.466492 47.944885 -41.094482" fill-rule="evenodd"/><path fill="#000000" fill-opacity="0.0" d="m14.091864 -5.6377954c8.423777 14.034248 26.498587 30.564503 19.178476 45.204723c-7.399458 14.79892 -27.288948 23.288715 -43.834644 23.288715" fill-rule="evenodd"/><path stroke="#000000" stroke-width="2.0" stroke-linejoin="round" stroke-linecap="butt" stroke-dasharray="8.0,6.0,2.0,6.0" d="m14.091864 -5.6377954c8.423777 14.034248 26.498587 30.564503 19.178476 45.204723c-7.399458 14.79892 -27.288948 23.288715 -43.834644 23.288715" fill-rule="evenodd"/><path fill="#000000" fill-opacity="0.0" d="m30.530184 -7.007874c7.945753 15.89151 26.773157 30.522661 23.288713 47.94488c-5.498451 27.492268 -39.08664 50.68504 -67.12336 50.68504" fill-rule="evenodd"/><path stroke="#000000" stroke-width="2.0" stroke-linejoin="round" stroke-linecap="butt" stroke-dasharray="8.0,6.0,2.0,6.0" d="m30.530184 -7.007874c7.945753 15.89151 26.773157 30.522661 23.288713 47.94488c-5.498451 27.492268 -39.08664 50.68504 -67.12336 50.68504" fill-rule="evenodd"/><path fill="#000000" fill-opacity="0.0" d="m57.929134 -1.527559c13.02412 26.052406 31.369457 57.887245 20.548557 84.92913c-9.48333 23.699234 -30.168804 43.028534 -52.05512 56.16535c-17.341747 10.409042 -33.199368 28.766403 -53.425198 28.766403" fill-rule="evenodd"/><path stroke="#000000" stroke-width="2.0" stroke-linejoin="round" stroke-linecap="butt" stroke-dasharray="8.0,6.0,2.0,6.0" d="m57.929134 -1.527559c13.02412 26.052406 31.369457 57.887245 20.548557 84.92913c-9.48333 23.699234 -30.168804 43.028534 -52.05512 56.16535c-17.341747 10.409042 -33.199368 28.766403 -53.425198 28.766403" fill-rule="evenodd"/></g></svg>